# xmcd
#
# Track frame offsets: 
#        150
#        13350
#        25950
#        36750
#        51050
#        64500
#        76362
#        91600
#        106312
#        120262
#        133225
#        147375
#        161912
#        173862
#        185812
#        199587
#        211875
#        225250
#        237450
#        249162
#        261225
#        275887
#
# Disc length: 3831 seconds
#
# Revision: 3
# Processed by: cddbd v1.5.2PL0 Copyright (c) Steve Scherf et al.
# Submitted via: ExactAudioCopy v1.1
#
DISCID=360ef516
DTITLE=Arthur 'Big Boy' Crudup - Rock Me Mamma - When The Sun Goes Dow
DTITLE=n Vol. 7
DYEAR=2003
DGENRE=Blues
TTITLE0=That's All Right (mono)
TTITLE1=So Glad You're Mine (mono)
TTITLE2=My Baby Left Me (mono)
TTITLE3=Cool Disposition (mono)
TTITLE4=Rock Me Mamma (mono)
TTITLE5=Mean Ol' Frisco Blues (mono)
TTITLE6=Black Pony Blues (mono)
TTITLE7=Death Valley Blues (mono)
TTITLE8=Dirt Road Blues (mono)
TTITLE9=Give Me A 32-20 (mono)
TTITLE10=Raised To My Hand (mono)
TTITLE11=Chicago Blues (mono)
TTITLE12=Dust My Broom (mono)
TTITLE13=Come Back Baby (mono)
TTITLE14=Hoodoo Lady Blues (mono)
TTITLE15=Shout, Sister, Shout (mono)
TTITLE16=Anytime Is The Right Time (mono)
TTITLE17=Nobody Wants Me (mono)
TTITLE18=Star Bootlegger (mono)
TTITLE19=Mr. So And So (mono)
TTITLE20=I'm Gonna Dig Myself A Hole (mono)
TTITLE21=If You've Ever Been To Georgia (mono)
EXTD=
EXTT0=
EXTT1=
EXTT2=
EXTT3=
EXTT4=
EXTT5=
EXTT6=
EXTT7=
EXTT8=
EXTT9=
EXTT10=
EXTT11=
EXTT12=
EXTT13=
EXTT14=
EXTT15=
EXTT16=
EXTT17=
EXTT18=
EXTT19=
EXTT20=
EXTT21=
PLAYORDER=
